<svg width="82.325mm" height="73.819mm" version="1.1" viewBox="0 0 82.325 73.819" xmlns="http://www.w3.org/2000/svg">
 <g transform="translate(-42.065)">
  <g transform="translate(-211.78 -86.016)">
   <path d="m314.85 150.23c-1.1973 2.0743-3.41 3.3479-5.8036 3.3479h-27.679c-1.1677 0-2.3213-0.32808-3.3306-0.90311-0.97684-0.56091-1.82-1.3617-2.4056-2.3354-3.5352-6.1842-12.827-22.214-13.896-24.063-1.1903-2.0673-1.1719-4.699 0.0564-6.7486l10.354-17.942 3.0162 5.2282-7.8885 13.236c-1.1878 1.9544-1.3 4.4662-0.14076 6.4594 1.0195 1.7709 8.5408 14.757 10.989 19.039 0.55069 0.90664 1.3515 1.6686 2.3146 2.2084 0.98778 0.54681 2.1026 0.82903 3.2209 0.81492l22.422-0.32103c2.2881 0 4.4835-1.2841 5.6374-3.2526l7.8564-13.176h5.902zm1.1818-24.67-8.5051 14.242c-0.61278 1.0336-1.3395 1.8697-2.5735 2.1343-0.71402 0.15169-1.4919 0.0917-2.2176 0.1023l-17.141 0.24695c-0.58949 7e-3 -1.1786-0.14464-1.711-0.43745-0.50095-0.27516-0.9137-0.66322-1.1994-1.1289-1.6969-2.9704-7.8634-13.621-8.7492-15.159-0.35877-0.60325-0.70344-1.1889-0.77188-1.905-0.0709-0.74436 0.11854-1.4852 0.50412-2.1202l8.756-14.676-10.234-17.727c-0.22261 0.28928-0.42334 0.59267-0.61031 0.91722l-16.609 28.783c-1.4965 2.4694-1.4912 5.6339-0.067 8.128 0.93487 1.6228 12.121 20.923 16.729 28.977 0.70555 1.1712 1.718 2.1308 2.8963 2.8081 1.2167 0.69497 2.607 1.0866 4.0146 1.0901h33.327c2.885 0 5.5446-1.5346 6.9889-4.0322l16.619-28.79c0.27905-0.46214 0.50448-0.94897 0.67734-1.4534h-20.122" fill="#1a1a1a"/>
   <path d="m280.06 120.68c-0.45508 0.74083-0.69462 1.584-0.70203 2.4024-0.0176 0.8502 0.19439 1.6828 0.61384 2.406 0.0145 0.0247 0.0286 0.0459 0.0427 0.0705 0.58914 1.0195 4.7907 8.2938 5.3728 9.3098l0.0176 0.0282 0.0141 0.0247c0.41275 0.67027 1.0019 1.2382 1.7251 1.651 0.73378 0.40569 1.5558 0.61383 2.3883 0.60325l10.308-0.14817c0.80081-0.0106 1.5794-0.0212 2.3456-0.29633 1.0657-0.381 1.9583-1.1289 2.5404-2.099l5.4155-9.0734h-7.3096s-3.0939 5.1682-3.1083 5.1752c-0.0102 7e-3 -9.2742 0.1517-9.2742 0.1517-7e-3 0-0.0251-4e-3 -0.0709-0.0282-0.98037-1.718-3.997-6.925-4.4623-7.74 0 0 4e-3 -0.0141 0.0318-0.0635l2.9598-4.9565v-4e-3l-3.5948-6.2265-5.2532 8.8124" fill="#a40"/>
   <path d="m320.24 114.03-7.8775-13.642-7e-3 -0.0106c-0.59231-0.9772-1.4076-1.7709-2.346-2.2895-0.95215-0.53975-2.0638-0.81844-3.2283-0.80786l-16.432 0.23636-3.0268-5.2423h21.745c1.2202 0.0071 2.353 0.3175 3.3412 0.88547 0.98708 0.5715 1.827 1.4041 2.4515 2.4483l10.636 18.422zm15.293 4.8648-16.662-28.864c-0.75459-1.2594-1.7639-2.2578-2.9524-2.9457-1.1892-0.68792-2.5541-1.0619-4.022-1.0689h-33.33c-0.6664 0-1.3229 0.07761-1.9576 0.23283l10.153 17.582 18.08-0.26105c0.61065-0.0106 1.2065 0.13405 1.7074 0.40922 0.508 0.28928 0.92816 0.70203 1.2347 1.2065l8.7246 15.109h19.657c-0.16228-0.48683-0.37395-0.95603-0.63183-1.4005" fill="#d45500"/>
   <path d="m305.05 110.98-0.0173-0.0247c-0.43745-0.71614-1.041-1.2982-1.7353-1.6828-0.70978-0.40216-1.5353-0.6103-2.3925-0.60325l-11.056 0.16228c-0.0639 0-0.13053 4e-3 -0.19403 7e-3l3.5948 6.223s6.7698-0.0988 6.7843-0.0953c0.0102 0.0106 3.0826 5.3234 3.0826 5.3234h7.3028l-5.3696-9.3098" fill="#a40"/>
  </g>
 </g>
</svg>
